<svg width="36" height="30" fill="none" xmlns="http://www.w3.org/2000/svg"><path d="M10.507 13.69h2.91v2.414h-2.91v-2.415zm0 4.828h2.91v2.414h-2.91v-2.414zm5.822-4.829h2.91v2.415h-2.91v-2.415zm0 4.829h2.91v2.414h-2.91v-2.414zm5.821-4.829h2.911v2.415h-2.91v-2.415zm0 4.829h2.911v2.414h-2.91v-2.414z" fill="#000"/><path d="M7.596 26.968h20.376c1.605 0 2.91-1.083 2.91-2.414v-16.9c0-1.332-1.305-2.415-2.91-2.415H25.06V2.825h-2.91v2.414h-8.733V2.825h-2.911v2.414h-2.91c-1.606 0-2.912 1.083-2.912 2.414v16.9c0 1.332 1.306 2.415 2.911 2.415zm20.376-16.9l.001 14.486H7.596V10.068h20.376z" fill="#000"/></svg>