<svg width="36" height="27" fill="none" xmlns="http://www.w3.org/2000/svg"><path d="M1.633 24.526h33.075v1.193H1.633v-1.193zm1.129-6.908c.547-2.26 2.915-3.545 4.805-4.224l5.633-2.023 2.751-8.586 3.965-3.4.748 9.311 5.131-1.807 1.986-4.348 3.552-1.276.84 4.134c.521.012 1.144.133 1.403.63.338.648-.077 1.522-1.235 2.604a13.66 13.66 0 01-.806.692c-1.384 1.105-3.128 2.124-4.443 2.597L6.956 19.154c-1.74.625-2.936.692-3.66.207-.375-.252-.772-.759-.534-1.744zm3.622.442l20.137-7.233c1.12-.402 2.648-1.291 3.894-2.264 1.273-.995 1.745-1.681 1.826-1.965a3.311 3.311 0 00-.581.02l-.683.07-.757-3.724-1.31.47-1.987 4.354-7.56 2.662-.666-8.304-1.452 1.245-2.834 8.845-6.272 2.253c-2.291.823-3.626 1.955-3.967 3.364-.086.355-.03.542.029.582.004.002.418.26 2.183-.375z" fill="#1F4AA8"/></svg>