<svg width="36" height="22" fill="none" xmlns="http://www.w3.org/2000/svg"><path d="M34.428 20.526H1.353v1.193h33.075v-1.193zm-.502-18.79c-2.402-1.161-5.132-.544-6.998.178l-5.564 2.152L11.796.074 6.097.277 14 6.92 8.963 8.905l-5.24-1.654L.217 8.608l3.17 3.265c-.335.332-.638.798-.363 1.288.36.64 1.424.963 3.168.963.358 0 .745-.014 1.16-.04 1.915-.126 3.991-.532 5.29-1.034l19.887-7.692c1.718-.665 2.574-1.362 2.616-2.133.022-.4-.172-.983-1.218-1.489zm-2.006 2.54L12.033 11.97c-1.106.428-2.923.786-4.627.913-1.742.13-2.673-.033-2.984-.171.064-.073.183-.187.404-.348l.516-.377-2.855-2.94 1.293-.5L9.025 10.2l7.418-2.923-7.046-5.925 2.086-.074L21.34 5.39l6.195-2.396c2.263-.875 4.17-.952 5.667-.228.377.182.509.341.505.403 0 .005-.043.432-1.787 1.107z" fill="#1F4AA8"/></svg>