<svg width="36" height="30" viewBox="0 0 36 30" fill="none" xmlns="http://www.w3.org/2000/svg">
<path d="M10.507 13.6892H13.4178V16.1036H10.507V13.6892ZM10.507 18.5179H13.4178V20.9323H10.507V18.5179ZM16.3286 13.6892H19.2394V16.1036H16.3286V13.6892ZM16.3286 18.5179H19.2394V20.9323H16.3286V18.5179ZM22.1502 13.6892H25.061V16.1036H22.1502V13.6892ZM22.1502 18.5179H25.061V20.9323H22.1502V18.5179Z" fill="black"/>
<path d="M7.59624 26.9681H27.9718C29.5771 26.9681 30.8826 25.8853 30.8826 24.5538V7.65338C30.8826 6.32187 29.5771 5.23903 27.9718 5.23903H25.061V2.82469H22.1502V5.23903H13.4178V2.82469H10.507V5.23903H7.59624C5.99093 5.23903 4.68544 6.32187 4.68544 7.65338V24.5538C4.68544 25.8853 5.99093 26.9681 7.59624 26.9681ZM27.9718 10.0677L27.9733 24.5538H7.59624V10.0677H27.9718Z" fill="black"/>
</svg>
