<svg width="36" height="27" viewBox="0 0 36 27" fill="none" xmlns="http://www.w3.org/2000/svg">
<path d="M1.63335 24.5263H34.7083V25.7191H1.63335V24.5263Z" fill="#1F4AA8"/>
<path d="M2.76234 17.6182C3.30945 15.3572 5.67725 14.0732 7.56695 13.3944L13.2002 11.3709L15.9512 2.78486L19.9164 -0.615778L20.6638 8.6963L25.7953 6.88897L27.7812 2.54085L31.3328 1.26498L32.1733 5.39887C32.6944 5.41104 33.3166 5.53244 33.5758 6.02868C33.9141 6.67675 33.4991 7.55075 32.341 8.63316C32.1036 8.85513 31.8348 9.08592 31.535 9.32522C30.1507 10.4302 28.4069 11.4493 27.0924 11.9215L6.95588 19.1549C5.21661 19.7796 4.01958 19.8474 3.29623 19.3621C2.92108 19.1103 2.52378 18.6034 2.76234 17.6182ZM6.38442 18.0602L26.5209 10.8269C27.6409 10.4246 29.1695 9.53585 30.4152 8.56267C31.6884 7.56797 32.1597 6.882 32.241 6.59758C32.1331 6.58907 31.9511 6.58744 31.6599 6.61736L30.977 6.68755L30.2201 2.96446L28.9106 3.43478L26.9228 7.78765L19.3635 10.45L18.697 2.14569L17.2449 3.39094L14.411 12.2356L8.1385 14.4888C5.84768 15.3117 4.51342 16.4436 4.17224 17.8528L4.17225 17.8529C4.08626 18.208 4.14218 18.3954 4.20072 18.4346C4.20469 18.4374 4.6191 18.6945 6.38442 18.0602Z" fill="#1F4AA8"/>
</svg>
