<svg width="36" height="22" viewBox="0 0 36 22" fill="none" xmlns="http://www.w3.org/2000/svg">
<path d="M34.4277 20.5263H1.35272V21.7191H34.4277V20.5263Z" fill="#1F4AA8"/>
<path d="M33.9258 1.73622C31.5237 0.574994 28.7943 1.19184 26.9279 1.9137L21.3643 4.06559L11.7956 0.0737305L6.09709 0.2768L13.9986 6.92103L8.96297 8.90515L3.72382 7.25131L0.216003 8.60797L3.3861 11.8731C3.05118 12.2045 2.74768 12.6711 3.02321 13.1613C3.38308 13.8013 4.44672 14.1239 6.19143 14.1238C6.54921 14.1238 6.93569 14.1103 7.35049 14.0831C9.26567 13.9576 11.3421 13.5521 12.6404 13.05L32.5282 5.35784C34.246 4.6934 35.1016 3.99575 35.144 3.22486C35.166 2.82504 34.9725 2.24207 33.9258 1.73622ZM31.9204 4.27677L12.0326 11.969C10.9265 12.3968 9.11044 12.7553 7.40607 12.8822C5.66403 13.0119 4.73261 12.8491 4.42213 12.7108C4.48605 12.6382 4.60541 12.5241 4.82565 12.3634L5.34219 11.9863L2.4871 9.0456L3.78033 8.54535L9.02509 10.2011L16.4432 7.27826L9.39675 1.35304L11.4834 1.27867L21.3404 5.3907L27.5355 2.99465C29.798 2.11958 31.7043 2.043 33.2016 2.76666L33.2017 2.76672C33.5789 2.94903 33.7108 3.10809 33.7074 3.17047C33.7072 3.17476 33.664 3.60249 31.9204 4.27677Z" fill="#1F4AA8"/>
</svg>
